# xmcd CD database file
#
# Track frame offsets:
#	150
#	21355
#	39250
#	58812
#	84972
#	100812
#	118882
#	131142
#	147077
#	167965
#	182247
#	194792
#	213052
#	233555
#
# Disc length: 3385 seconds
#
# Revision: 0
# Processed by: cddbd v1.5.1PL2 Copyright (c) Steve Scherf et al.
# Submitted via: CDex 1.51
#
DISCID=c70d370e
DTITLE=Kid Thomas - Kid Thomas - Sonnets From Algiers
DYEAR=1995
DGENRE=Jazz
TTITLE0=Put On Your Old Grey Bonnet
TTITLE1=Closer Walk
TTITLE2=Milenburg Joys/Dippermouth
TTITLE3=I Believe I Can Make It By Myself
TTITLE4=In The Shade Of The Old Apple Tree
TTITLE5=I Cant Escape From You
TTITLE6=Ballin The Jack
TTITLE7=S'il Vous Plait
TTITLE8=Sing On
TTITLE9=When You And I Were Young Maggie
TTITLE10=Dinah
TTITLE11=Should I
TTITLE12=Dreamy Moon of Indiana
TTITLE13=High Society
EXTD=YEAR: 1995
EXTT0=
EXTT1=
EXTT2=
EXTT3=
EXTT4=
EXTT5=
EXTT6=
EXTT7=
EXTT8=
EXTT9=
EXTT10=
EXTT11=
EXTT12=
EXTT13=
PLAYORDER=
